<svg preserveAspectRatio="none" width="100%" height="100%" overflow="visible" style="display: block;" viewBox="0 0 12 12" fill="none" xmlns="http://www.w3.org/2000/svg">
<path id="arrow_forward" d="M9.36898 6.79425H0.769626C0.551586 6.79425 0.36877 6.71908 0.221176 6.56873C0.0737254 6.41838 0 6.23208 0 6.00984C0 5.78761 0.0737254 5.59978 0.221176 5.44636C0.36877 5.29294 0.551586 5.21623 0.769626 5.21623H9.36898L5.59979 1.35425C5.44592 1.19659 5.36898 1.01183 5.36898 0.799968C5.36898 0.588105 5.44742 0.398304 5.60428 0.230567C5.76114 0.0768558 5.94296 0 6.14973 0C6.35651 0 6.53697 0.0790473 6.69112 0.237141L11.7775 5.45535C11.8545 5.53439 11.9109 5.62001 11.9465 5.71221C11.9822 5.80441 12 5.90325 12 6.00875C12 6.1141 11.9822 6.21294 11.9465 6.30528C11.9109 6.39748 11.8574 6.48011 11.7861 6.55316L6.69519 11.7694C6.53832 11.9301 6.36007 12.0068 6.16043 11.9995C5.96078 11.9922 5.78253 11.9117 5.62567 11.758C5.46881 11.5903 5.39037 11.3992 5.39037 11.1849C5.39037 10.9707 5.46881 10.7856 5.62567 10.6297L9.36898 6.79425Z" fill="var(--fill-0, white)"/>
</svg>
