<svg preserveAspectRatio="none" width="100%" height="100%" overflow="visible" style="display: block;" viewBox="0 0 32 20" fill="none" xmlns="http://www.w3.org/2000/svg">
<g id="Overline Arrow Container">
<rect width="32" height="20" rx="10" fill="var(--fill-0, #F3F4FF)"/>
<path id="arrow_forward" d="M18.246 10.5295H12.5131C12.3677 10.5295 12.2458 10.4794 12.1475 10.3792C12.0492 10.2789 12 10.1547 12 10.0066C12 9.8584 12.0492 9.73319 12.1475 9.63091C12.2458 9.52863 12.3677 9.47749 12.5131 9.47749H18.246L15.7332 6.90283C15.6306 6.79773 15.5793 6.67455 15.5793 6.53331C15.5793 6.39207 15.6316 6.26554 15.7362 6.15371C15.8408 6.05124 15.962 6 16.0998 6C16.2377 6 16.358 6.0527 16.4607 6.15809L19.8517 9.6369C19.903 9.68959 19.9406 9.74668 19.9643 9.80814C19.9881 9.86961 20 9.9355 20 10.0058C20 10.0761 19.9881 10.142 19.9643 10.2035C19.9406 10.265 19.9049 10.3201 19.8574 10.3688L16.4635 13.8463C16.3589 13.9534 16.24 14.0046 16.107 13.9997C15.9739 13.9948 15.855 13.9411 15.7504 13.8387C15.6459 13.7268 15.5936 13.5995 15.5936 13.4566C15.5936 13.3138 15.6459 13.1904 15.7504 13.0865L18.246 10.5295Z" fill="var(--fill-0, #3943FF)"/>
</g>
</svg>
