<?xml version="1.0" encoding="UTF-8"?>
<svg id="Layer_3" data-name="Layer 3" xmlns="http://www.w3.org/2000/svg" xmlns:xlink="http://www.w3.org/1999/xlink" viewBox="0 0 211.21 53.93">
  <defs>
    <style>
      .cls-1 {
        fill: #041135;
      }

      .cls-2 {
        fill: url(#linear-gradient);
        isolation: isolate;
      }
    </style>
    <linearGradient id="linear-gradient" x1="3.37" y1="46.58" x2="37.69" y2="12.26" gradientUnits="userSpaceOnUse">
      <stop offset="0" stop-color="#3943ff"/>
      <stop offset=".54" stop-color="#e4004d"/>
      <stop offset=".62" stop-color="#e92144"/>
      <stop offset=".74" stop-color="#f05238"/>
      <stop offset=".85" stop-color="#f57530"/>
      <stop offset=".94" stop-color="#f88b2a"/>
      <stop offset="1" stop-color="#fa9329"/>
    </linearGradient>
  </defs>
  <g id="Layer_1" data-name="Layer 1">
    <g>
      <path class="cls-2" d="M39.23,15.51c.47-.58.38-1.42-.2-1.89-.58-.48-1.45-.37-1.91.23-2.35,2.88-5.18,5.62-8.2,8.26-1.16-5.89-1.71-11.64-1.79-16.41-.01-.75-.63-1.38-1.37-1.33-.75.01-1.34.63-1.33,1.37.09,5.49.73,11.92,2.1,18.4-2.65,2.21-5.37,4.34-7.98,6.41-1.88-2.22-4.54-5.51-5.79-8.05,8.17-5.33,11.27-16.55,6.99-20.86-5.24-4.84-11.11,2.21-11.8,7.38-.83,4.26-.14,8.57,1.49,12.51-2.46,1-5.18,1.24-7.94.32-1.49-.42-2.14,1.77-.69,2.25,3.22,1.1,6.59.81,9.63-.43,1.09,2.31,3.86,6,6.06,8.53-.25.2-8.08,5.27-9.64,12.75-1.41,6.78,4.91,11.07,10.97,7.99,5.13-2.4,7-8.78,5.56-13.97-.62-2.33-1.84-4.39-3.25-6.33,2.33-1.83,4.71-3.69,7.05-5.6,1.86,7.55,4.74,14.99,8.94,20.89.26.37.68.57,1.1.57.27,0,.54-.08.78-.25.61-.43.75-1.28.32-1.88-4.2-5.9-7.02-13.6-8.79-21.28,3.49-2.96,6.83-6.09,9.68-9.54ZM11.99,5.44c2.49-4.28,7.13-3.8,7.26,1.51-.02,5.14-3.1,10.49-7.5,13.35-1.96-4.84-2.41-10.29.24-14.86ZM21.07,43.9c-.32,2.84-1.91,5.42-4.42,6.62-2.27,1.18-5.48,1.16-6.74-1.32-2.5-6.21,4.24-12.15,8.16-14.94,2.04,2.88,3.53,5.96,3,9.65Z"/>
      <g>
        <g>
          <path class="cls-1" d="M53.04,16h7.51c3.97,0,6.64,2.37,6.64,6.07,0,2.56-1.47,4.6-3.7,5.39l4.03,7.59h-3.48l-3.67-6.91h-4.19v6.91h-3.13v-19.05ZM56.17,18.72v6.69h4.14c2.23,0,3.67-1.31,3.67-3.35s-1.44-3.35-3.67-3.35h-4.14Z"/>
          <path class="cls-1" d="M74.07,16h3.13v8h8.84v-8h3.13v19.05h-3.13v-8.27h-8.84v8.27h-3.13v-19.05Z"/>
          <path class="cls-1" d="M96.73,16h3.13v19.05h-3.13v-19.05Z"/>
          <path class="cls-1" d="M107.42,35.05v-19.05h3.13v16.27h8.19v2.78h-11.32Z"/>
          <path class="cls-1" d="M125.1,35.05v-19.05h3.13v16.27h8.19v2.78h-11.32Z"/>
          <path class="cls-1" d="M141.45,35.05l7.13-19.05h3.73l7.1,19.05h-3.35l-1.8-4.71h-7.81l-1.77,4.71h-3.24ZM147.32,27.67h6.07l-3.05-8.3-3.02,8.3Z"/>
          <path class="cls-1" d="M165.44,35.05v-19.05h2.86l9.28,13.5v-13.5h3.08v19.05h-2.86l-9.28-13.5v13.5h-3.07Z"/>
          <path class="cls-1" d="M188.21,16h12.43v2.78h-9.31v5.28h7.67v2.69h-7.67v5.52h9.63v2.78h-12.76v-19.05Z"/>
        </g>
        <path class="cls-1" d="M208.78,15.94c1.36,0,2.43,1.04,2.43,2.37s-1.07,2.35-2.43,2.35-2.41-1.01-2.41-2.34,1.06-2.39,2.41-2.39ZM208.78,16.45c-1.06,0-1.84.8-1.84,1.88s.79,1.84,1.84,1.84,1.86-.8,1.86-1.86-.79-1.87-1.86-1.87ZM207.87,17.03h1.01c.61,0,1,.33,1,.83,0,.35-.2.62-.54.74l.56.99h-.62l-.5-.88h-.36v.88h-.56v-2.57ZM208.44,17.5v.77h.42c.27,0,.45-.15.45-.39s-.18-.37-.45-.37h-.42Z"/>
      </g>
    </g>
  </g>
</svg>